<svg width="67" height="19" viewBox="0 0 241 70" fill="none" xmlns="http://www.w3.org/2000/svg">
<path d="M0.17058 57.4691C2.10383 55.9265 2.98516 55.2124 2.81458 55.3266C8.38687 50.699 12.7651 46.8997 15.9493 43.9288C19.1903 40.958 21.9196 37.8443 24.1371 34.5878C26.3547 31.3313 27.4634 28.1605 27.4634 25.0754C27.4634 22.733 26.9233 20.9048 25.8429 19.5907C24.7626 18.2767 23.1421 17.6197 20.9814 17.6197C18.8207 17.6197 17.1149 18.4481 15.864 20.1049C14.6699 21.7046 14.0729 23.9899 14.0729 26.9607H0C0.11372 22.1045 1.1372 18.0482 3.07045 14.7917C5.06055 11.5351 7.64769 9.13562 10.8319 7.59306C14.0729 6.05051 17.6551 5.27923 21.5784 5.27923C28.3448 5.27923 33.4338 7.02174 36.8454 10.5068C40.3138 13.9918 42.0481 18.5338 42.0481 24.1327C42.0481 30.2458 39.9727 35.9304 35.8219 41.1865C31.6711 46.3855 26.3831 51.4702 19.9579 56.4407H42.9863V68.3527H0.17058V57.4691Z" fill="white"/>
<path d="M65.4422 29.3603C67.148 26.7322 69.2803 24.6754 71.839 23.19C74.3977 21.6475 77.2407 20.8762 80.368 20.8762V36.3875H76.3594C72.7203 36.3875 69.991 37.1873 68.1715 38.787C66.352 40.3295 65.4422 43.0719 65.4422 47.014V69.2096H50.8576V21.3904H65.4422V29.3603Z" fill="white"/>
<path d="M94.6741 16.4199C92.1154 16.4199 90.0116 15.6772 88.3626 14.1918C86.7706 12.6492 85.9745 10.7639 85.9745 8.53574C85.9745 6.25047 86.7706 4.36512 88.3626 2.87969C90.0116 1.33714 92.1154 0.565857 94.6741 0.565857C97.176 0.565857 99.2229 1.33714 100.815 2.87969C102.464 4.36512 103.288 6.25047 103.288 8.53574C103.288 10.7639 102.464 12.6492 100.815 14.1918C99.2229 15.6772 97.176 16.4199 94.6741 16.4199ZM101.924 21.3904V69.2096H87.3392V21.3904H101.924Z" fill="white"/>
<path d="M131.854 69.8952C127.703 69.8952 124.007 69.1811 120.766 67.7528C117.525 66.3245 114.967 64.382 113.09 61.9253C111.214 59.4115 110.162 56.6121 109.934 53.527H124.348C124.519 55.1838 125.287 56.5264 126.651 57.5548C128.016 58.5831 129.693 59.0973 131.683 59.0973C133.503 59.0973 134.896 58.7545 135.863 58.0689C136.886 57.3262 137.398 56.3836 137.398 55.2409C137.398 53.8698 136.687 52.87 135.266 52.2415C133.844 51.5559 131.541 50.8132 128.357 50.0134C124.945 49.2135 122.102 48.3851 119.828 47.5281C117.554 46.614 115.592 45.2143 113.943 43.329C112.294 41.3865 111.47 38.787 111.47 35.5305C111.47 32.7882 112.209 30.3029 113.687 28.0748C115.222 25.7895 117.44 23.9899 120.34 22.6758C123.297 21.3618 126.793 20.7048 130.83 20.7048C136.801 20.7048 141.492 22.1902 144.903 25.1611C148.372 28.1319 150.362 32.074 150.874 36.9873H137.398C137.17 35.3305 136.431 34.0165 135.18 33.0452C133.986 32.074 132.394 31.5884 130.404 31.5884C128.698 31.5884 127.39 31.9312 126.481 32.6168C125.571 33.2452 125.116 34.1307 125.116 35.2734C125.116 36.6445 125.827 37.6729 127.248 38.3585C128.727 39.0441 131.001 39.7297 134.072 40.4152C137.597 41.3293 140.468 42.2435 142.686 43.1576C144.903 44.0145 146.837 45.4428 148.486 47.4424C150.191 49.3849 151.073 52.013 151.13 55.3266C151.13 58.1261 150.334 60.6399 148.741 62.868C147.206 65.039 144.96 66.753 142.004 68.0099C139.104 69.2668 135.72 69.8952 131.854 69.8952Z" fill="white"/>
<path d="M220.779 20.8762C226.692 20.8762 231.383 22.6758 234.852 26.2751C238.377 29.8744 240.14 34.8735 240.14 41.2722V69.2096H225.641V43.2433C225.641 40.1581 224.816 37.7872 223.167 36.1304C221.575 34.4164 219.357 33.5594 216.514 33.5594C213.671 33.5594 211.426 34.4164 209.777 36.1304C208.184 37.7872 207.388 40.1581 207.388 43.2433V69.2096H192.889V43.2433C192.889 40.1581 192.065 37.7872 190.416 36.1304C188.824 34.4164 186.606 33.5594 183.763 33.5594C180.92 33.5594 178.674 34.4164 177.025 36.1304C175.433 37.7872 174.637 40.1581 174.637 43.2433V69.2096H160.052V21.3904H174.637V27.3892C176.115 25.3896 178.049 23.8185 180.437 22.6758C182.825 21.4761 185.526 20.8762 188.539 20.8762C192.122 20.8762 195.306 21.6475 198.092 23.19C200.935 24.7326 203.152 26.9322 204.744 29.7887C206.393 27.1607 208.639 25.0182 211.482 23.3614C214.325 21.7046 217.424 20.8762 220.779 20.8762Z" fill="white"/>
</svg>
